<svg xmlns="http://www.w3.org/2000/svg" version="1.1" xmlns:xlink="http://www.w3.org/1999/xlink" xmlns:svgjs="http://svgjs.com/svgjs" width="1440" height="560" preserveAspectRatio="none" viewBox="0 0 1440 560">
    <g mask="url(&quot;#SvgjsMask1083&quot;)" fill="none">
        <use xlink:href="#SvgjsG1126" transform="translate(0, 0)" fill="rgba(123, 15, 15, 0.23)"></use>
        <use xlink:href="#SvgjsG1126" transform="translate(0, 279)" fill="rgba(123, 15, 15, 0.23)"></use>
        <use xlink:href="#SvgjsG1126" transform="translate(0, 558)" fill="rgba(123, 15, 15, 0.23)"></use>
        <use xlink:href="#SvgjsG1126" transform="translate(279, 0)" fill="rgba(123, 15, 15, 0.23)"></use>
        <use xlink:href="#SvgjsG1126" transform="translate(279, 279)" fill="rgba(123, 15, 15, 0.23)"></use>
        <use xlink:href="#SvgjsG1126" transform="translate(279, 558)" fill="rgba(123, 15, 15, 0.23)"></use>
        <use xlink:href="#SvgjsG1126" transform="translate(558, 0)" fill="rgba(123, 15, 15, 0.23)"></use>
        <use xlink:href="#SvgjsG1126" transform="translate(558, 279)" fill="rgba(123, 15, 15, 0.23)"></use>
        <use xlink:href="#SvgjsG1126" transform="translate(558, 558)" fill="rgba(123, 15, 15, 0.23)"></use>
        <use xlink:href="#SvgjsG1126" transform="translate(837, 0)" fill="rgba(123, 15, 15, 0.23)"></use>
        <use xlink:href="#SvgjsG1126" transform="translate(837, 279)" fill="rgba(123, 15, 15, 0.23)"></use>
        <use xlink:href="#SvgjsG1126" transform="translate(837, 558)" fill="rgba(123, 15, 15, 0.23)"></use>
        <use xlink:href="#SvgjsG1126" transform="translate(1116, 0)" fill="rgba(123, 15, 15, 0.23)"></use>
        <use xlink:href="#SvgjsG1126" transform="translate(1116, 279)" fill="rgba(123, 15, 15, 0.23)"></use>
        <use xlink:href="#SvgjsG1126" transform="translate(1116, 558)" fill="rgba(123, 15, 15, 0.23)"></use>
        <use xlink:href="#SvgjsG1126" transform="translate(1395, 0)" fill="rgba(123, 15, 15, 0.23)"></use>
        <use xlink:href="#SvgjsG1126" transform="translate(1395, 279)" fill="rgba(123, 15, 15, 0.23)"></use>
        <use xlink:href="#SvgjsG1126" transform="translate(1395, 558)" fill="rgba(123, 15, 15, 0.23)"></use>
    </g>
    <defs>
        <mask id="SvgjsMask1083">
            <rect width="1440" height="560" fill="#ffffff"></rect>
        </mask>
        <g id="SvgjsG1115">
            <path d="M6.498 9.304L12.139 3.663l1.565 1.566-5.641 5.641z"></path>
            <path d="M6.8 0.457h2.541v8.028H6.8z"></path>
            <path d="M8.072 10.876L2.429 5.238l1.563-1.566L9.636 9.313zM1.2 13.277h13.733v2.266H1.2z"></path>
            <path d="M0.733 9.143h2.267v6.4h-2.267z m12.267 0h2.267v6.4h-2.267z"></path>
        </g>
        <g id="SvgjsG1102">
            <path d="M3.474 10.969C3.474 7.665 8.077 0.361 8.077 0.361s4.602 7.305 4.602 10.608c0 2.247-1.506 4.771-4.602 4.771-3.095 0-4.603-2.524-4.603-4.771z" fill-rule="evenodd"></path>
        </g>
        <g id="SvgjsG1096">
            <path d="M7.713 15.485C3.459 15.485 0 12.025 0 7.768 0 3.513 3.459 0.051 7.713 0.051S15.432 3.513 15.432 7.768c0 4.257-3.465 7.716-7.719 7.717z m0-1.91c3.201 0 5.81-2.604 5.81-5.809 0-3.199-2.61-5.807-5.81-5.807-3.202 0-5.804 2.609-5.804 5.807-0.001 3.206 2.602 5.809 5.804 5.809z"></path>
            <path d="M7.753 8.787a0.574 0.574 0 0 1-0.554-0.042 0.578 0.578 0 0 1-0.259-0.399L6.931 3.862a0.58 0.58 0 0 1 1.162 0v3.478l2.975-1.4a0.578 0.578 0 0 1 0.773 0.275c0.138 0.292 0.011 0.637-0.276 0.774l-3.81 1.798z"></path>
        </g>
        <g id="SvgjsG1086">
            <path d="M11.986 8.245a46.749 46.749 0 0 1-0.521-0.411c-0.146-0.116-0.293-0.233-0.44-0.348-0.88-0.688-1.797-1.316-2.816-1.407A2.815 2.815 0 0 0 7.954 6.067c-0.086 0-0.171 0.011-0.255 0.018-1.022 0.093-1.942 0.717-2.826 1.408l0.093 0.073c0.108 0.085 0.213 0.168 0.32 0.252C6.165 7.137 7.021 6.576 7.954 6.576c0.93 0 1.784 0.558 2.66 1.236a35.098 35.098 0 0 1 0.535 0.421c0.142 0.113 0.283 0.226 0.426 0.338C12.532 9.32 13.531 10 14.658 10c0.437 0 0.854-0.104 1.257-0.273v-0.557c-0.409 0.197-0.825 0.32-1.257 0.32-0.934 0-1.792-0.563-2.672-1.245z"></path>
            <path d="M11.574 7.496c0.029 0.023 0.059 0.046 0.088 0.07 0.109 0.087 0.216 0.17 0.325 0.256 0.318-0.246 0.635-0.476 0.952-0.67v1.37c0.17 0.111 0.34 0.214 0.51 0.301V6.878c0.315-0.147 0.634-0.248 0.96-0.283v2.537c0.078 0.01 0.157 0.018 0.237 0.018 0.091 0 0.183-0.009 0.273-0.021V6.592c0.34 0.037 0.67 0.144 0.996 0.3V6.336C15.514 6.17 15.099 6.067 14.664 6.067c-1.128 0-2.13 0.68-3.09 1.429z m-7.248 1.08c-0.034-0.027-0.068-0.053-0.102-0.08-0.104-0.083-0.207-0.162-0.31-0.245-0.877 0.678-1.733 1.238-2.665 1.238C0.82 9.49 0.407 9.36 0 9.152v0.562C0.401 9.891 0.815 10 1.249 10c1.124 0 2.122-0.677 3.077-1.423z"></path>
            <path d="M0.989 9.133c0.084 0.011 0.17 0.019 0.254 0.02 0.086 0 0.171-0.008 0.256-0.02V6.592c0.329 0.035 0.65 0.136 0.967 0.285-0.002 0.012-0.007 0.023-0.007 0.036v1.903a5.818 5.818 0 0 0 0.51-0.303V7.152c0.487 0.3 0.971 0.684 1.467 1.08C5.525 9.101 6.652 10 7.948 10c1.123 0 2.121-0.675 3.078-1.42l-0.106-0.084c-0.103-0.082-0.205-0.161-0.306-0.242-0.313 0.242-0.622 0.466-0.934 0.658V7.564A5.816 5.816 0 0 0 9.17 7.261v1.893c0 0.01 0.004 0.019 0.005 0.029-0.316 0.149-0.637 0.252-0.965 0.288V6.937a1.97 1.97 0 0 0-0.267-0.02c-0.082 0-0.163 0.008-0.243 0.017v2.541c-0.33-0.035-0.652-0.136-0.969-0.283 0.002-0.013 0.006-0.024 0.006-0.039V7.248a5.629 5.629 0 0 0-0.51 0.302v1.368c-0.49-0.299-0.976-0.686-1.474-1.083C3.666 6.966 2.539 6.067 1.243 6.067c-0.432 0-0.844 0.096-1.243 0.251v0.55c0.324-0.144 0.652-0.244 0.989-0.278V9.133z"></path>
        </g>
        <g id="SvgjsG1109">
            <path d="M2.524 8.637H0.014V7.308h2.51v1.329zM3.656 4.576L1.884 2.804l0.935-0.935 1.772 1.772-0.935 0.935z m0 6.817l0.935 0.935-1.772 1.773-0.934-0.936 1.771-1.772z m4.997-8.884h-1.33V-0.002h1.33v2.511z m-1.33 10.952h1.33v2.51h-1.33v-2.509zM12.344 4.576l-0.96-0.935 1.796-1.772 0.935 0.935-1.772 1.772z m0 6.792l1.771 1.797-0.935 0.936-1.771-1.774 0.936-0.96z m3.643-4.06v1.329h-2.51V7.308h2.509z"></path>
            <path d="M3.702 7.984a4.184 4.184 0 1 0 8.368 0 4.184 4.184 0 1 0-8.368 0"></path>
        </g>
        <g id="SvgjsG1121">
            <path d="M15.233 9.431c0.295 0 0.569-0.239 0.61-0.532 0 0 0.056-0.411 0.056-0.899s-0.056-0.899-0.056-0.899c-0.041-0.292-0.315-0.531-0.61-0.53h-1.524c-0.295 0-0.602-0.188-0.681-0.418s-0.188-0.967 0.021-1.176l1.078-1.077c0.209-0.209 0.225-0.565 0.036-0.792l-1.268-1.268c-0.227-0.189-0.583-0.173-0.792 0.036l-1.078 1.077c-0.208 0.209-0.556 0.293-0.772 0.187s-0.822-0.552-0.821-0.847V0.767c0-0.295-0.239-0.569-0.531-0.61 0 0-0.411-0.057-0.9-0.056s-0.899 0.057-0.899 0.056c-0.293 0.04-0.532 0.315-0.532 0.61v1.524c0 0.295-0.188 0.601-0.418 0.681s-0.967 0.188-1.176-0.021l-1.078-1.078C3.689 1.665 3.333 1.649 3.107 1.837l-1.268 1.268c-0.189 0.227-0.173 0.583 0.036 0.792l1.077 1.078c0.209 0.209 0.293 0.556 0.187 0.772s-0.552 0.822-0.847 0.822H0.767c-0.295 0-0.569 0.239-0.61 0.531 0 0-0.057 0.411-0.056 0.899s0.057 0.899 0.056 0.9c0.04 0.293 0.315 0.532 0.61 0.532h1.525c0.295 0 0.601 0.188 0.681 0.417 0.079 0.23 0.188 0.967-0.02 1.176l-1.078 1.077C1.667 12.311 1.651 12.667 1.84 12.893l1.267 1.268c0.227 0.189 0.583 0.173 0.792-0.036l1.077-1.077c0.209-0.208 0.556-0.292 0.772-0.187s0.821 0.553 0.822 0.848v1.524c0 0.295 0.239 0.569 0.532 0.61 0 0 0.411 0.057 0.899 0.057s0.899-0.056 0.899-0.057c0.293-0.04 0.531-0.315 0.532-0.609v-1.524c0-0.295 0.188-0.602 0.418-0.681 0.23-0.079 0.967-0.188 1.176 0.021l1.077 1.077c0.209 0.209 0.565 0.225 0.792 0.036l1.268-1.267c0.189-0.227 0.173-0.583-0.036-0.792l-1.078-1.077c-0.209-0.209-0.293-0.557-0.186-0.773 0.106-0.216 0.552-0.822 0.847-0.822h1.525zM8 10.892c-1.597 0-2.891-1.294-2.891-2.892 0-1.596 1.295-2.891 2.891-2.891S10.892 6.404 10.892 8 9.597 10.892 8 10.892z"></path>
        </g>
        <g id="SvgjsG1120">
            <path d="M15.065 12.151H0.02c0 1.333 1.015 1.95 1.83 1.95h11.386c0.975 0 1.83-0.767 1.829-1.951zM12.853 2.166H1.869v7.208c0 0.976 0.843 1.75 1.755 1.75h7.121c1.031 0 1.731-0.863 1.731-1.749V8.773c2.031 0 3.505-1.527 3.505-3.303 0-1.815-1.445-3.303-3.126-3.303z m1.832 3.305c0 1.036-0.763 2.025-2.21 1.931V3.519l0.378 0 0 0.001c1.391 0 1.837 1.318 1.832 1.952v-0.001z"></path>
        </g>
        <g id="SvgjsG1124">
            <path d="M7.357 2.676c0.737 0.058 1.384-0.493 1.442-1.229 0.057-0.738-0.495-1.384-1.231-1.443A1.34 1.34 0 0 0 7.357 2.677m0.367 2.686c0.418 0.078 0.732 0.448 0.733 0.89a0.906 0.906 0 0 1-0.906 0.906H4.615a0.575 0.575 0 0 1-0.575-0.575c0-0.077 0.016-0.151 0.043-0.218L4.4 5.624l3.535-2.532h-1.684c-0.647-0.018-1.101 0.207-1.363 0.717-0.177 0.343-1.115 2.439-1.115 2.439a0.906 0.906 0 0 0 0.842 1.242h1.147l-0.338 2.224L3.644 14.857a0.867 0.867 0 0 0 0.55 1.094c0.453 0.151 0.944-0.097 1.094-0.551L7.334 9.598c0.399 0.649 1.194 1.811 1.329 2.031 0.031 0.365 0.317 3.582 0.317 3.582a0.867 0.867 0 0 0 0.939 0.786c0.476-0.041 0.828-0.464 0.786-0.939L10.368 11.271a0.854 0.854 0 0 0-0.126-0.378L8.771 8.508l0.234-2.992s0.348 1.184 0.375 1.27c0.075 0.244 0.244 0.42 0.416 0.56 0.101 0.08 1.818 1.25 1.818 1.249 0.096 0.044 0.174 0.083 0.277 0.09a0.604 0.604 0 0 0 0.65-0.554 0.608 0.608 0 0 0-0.236-0.53s-1.711-1.175-1.781-1.226c-0.057-0.043-0.102-0.118-0.113-0.157L9.733 3.779c-0.11-0.369-0.482-0.687-0.952-0.687h-0.202l-0.855 2.271z"></path>
            <path d="M7.551 6.828a0.575 0.575 0 0 0 0.575-0.576c0-0.296-0.226-0.538-0.514-0.568l-0.42 1.147 0.359-0.003z"></path>
        </g>
        <g id="SvgjsG1084">
            <path d="M5.109 4.103a1.358 1.358 0 1 0 0-2.72 1.358 1.358 0 0 0 0 2.72"></path>
            <path d="M0.1 11.527c0.32 0 0.622-0.071 0.897-0.195a2.196 2.196 0 0 1 1.86 0 2.208 2.208 0 0 0 1.804 0 2.192 2.192 0 0 1 1.86 0 2.215 2.215 0 0 0 1.803 0 2.204 2.204 0 0 1 1.856 0 2.222 2.222 0 0 0 1.806 0 2.24 2.24 0 0 1 1.731-0.057A2.475 2.475 0 0 0 11.893 7.129l-0.275 0.03c-0.302 1.234-1.54 1.287-1.54 1.287H4.427l-0.471-0.277 1.137-1.911 1.248 0.72c0.747 0.484 1.134-0.196 1.135-0.196L8.729 4.747c0.539-0.889-0.613-1.6-1.156-0.711l-0.871 1.431-2.08-1.151c-1.44-0.805-2.053 0.526-2.053 0.527L0.933 7.644c-0.277 0.58-0.028 0.828-0.028 0.829H0.098v3.058z m14.638 2.702c-0.32 0-0.628-0.071-0.9-0.195a2.187 2.187 0 0 0-1.858 0 2.217 2.217 0 0 1-1.804 0 2.197 2.197 0 0 0-1.858 0 2.21 2.21 0 0 1-1.804 0 2.187 2.187 0 0 0-1.858 0 2.21 2.21 0 0 1-1.806 0 2.176 2.176 0 0 0-1.854 0 2.222 2.222 0 0 1-0.898 0.195v-1.351c0.32 0 0.626-0.071 0.901-0.195a2.204 2.204 0 0 1 1.854 0 2.21 2.21 0 0 0 1.807 0 2.21 2.21 0 0 1 1.861 0 2.176 2.176 0 0 0 1.803 0 2.222 2.222 0 0 1 0.929-0.207c0.331 0 0.645 0.076 0.928 0.207a2.194 2.194 0 0 0 1.808 0 2.21 2.21 0 0 1 1.856 0c0.272 0.124 0.58 0.196 0.9 0.195v1.351z"></path>
        </g>
        <g id="SvgjsG1108">
            <path d="M2.457 6.907a1.47 1.47 0 0 0-0.149 0.652l0.053 3.502L1.156 13.662a0.786 0.786 0 0 0 0.572 1.156 0.782 0.782 0 0 0 0.805-0.398l1.33-2.848a0.811 0.811 0 0 0 0.071-0.32l-0.012-2.162 2.044 0.889 0.329 2.115a0.788 0.788 0 0 0 1.55-0.266L7.442 9.28a0.795 0.795 0 0 0-0.441-0.569L5.173 7.9l1.165-2.023 0.576 0.733a0.604 0.604 0 0 0 0.22 0.156l2.198 0.64a0.622 0.622 0 0 0 0.705-0.37 0.622 0.622 0 0 0-0.341-0.808l-0.03-0.011-1.91-0.562-1.44-1.724a1.433 1.433 0 0 0-2.266 0.218l-1.595 2.759z"></path>
            <path d="M8.764 11.924l-0.142 1.048-3.779 0.92 0.035 0.65h9.223c0.325 0 0.59-0.267 0.591-0.59L14.681 1.52 13.419 1.227l-0.729 3.265-1.213 0.511L10.4 8.018l1.024 2.306-0.288 0.885-2.373 0.715zM6.196 3.33A1.179 1.179 0 1 0 6.192 0.974a1.179 1.179 0 0 0 0.004 2.356M3.852 3.515a0.338 0.338 0 0 0-0.124-0.459l-0.569-0.334a0.338 0.338 0 0 0-0.462 0.124L0.942 5.879a0.338 0.338 0 0 0 0.125 0.459l0.572 0.329c0.16 0.094 0.363 0.039 0.457-0.121l1.756-3.031z"></path>
        </g>
        <g id="SvgjsG1112">
            <path d="M14.668 5.394A1.332 1.332 0 0 0 16 4.062c0-0.735-0.596-1.328-1.332-1.328-0.733 0-1.33 0.594-1.331 1.328s0.597 1.332 1.331 1.332zM14.011 14.984a1.353 1.353 0 0 0 1.855-0.472l-0.465-0.279c-0.228 0.384-0.727 0.506-1.109 0.279L0.275 6.282 0 6.752 14.011 14.984z"></path>
            <path d="M8.937 0.301c-0.81-0.544-1.904-0.33-2.45 0.483-0.301 0.444-0.383 1.006-0.236 1.462l0.931 3.05-2.811 0.896a1.085 1.085 0 0 0-0.67 0.877c-0.073 0.594 0.37 0.987 0.964 1.057 0.135 0.016 0.226-0.024 0.352-0.055l3.837-1.269c0.281-0.102 0.589-0.382 0.619-0.626 0.021-0.177 0.078-0.326 0.042-0.432l-0.584-2.086 2.306 1.371 0.279 2c0.024 0.35 0.183 0.601 0.452 0.751L14.984 9.541a0.683 0.683 0 0 0 0.928-0.275c0.183-0.33 0.059-0.75-0.272-0.932l-2.383-1.391-0.275-3.565a1.453 1.453 0 0 0-0.612-1.045L8.938 0.301z"></path>
        </g>
        <g id="SvgjsG1095">
            <path d="M8.579 0C5.824 0 3.283 2.068 2.755 4.347c-0.119 0.507-0.25 1.83-0.25 1.829L1.236 9.37A0.488 0.488 0 0 0 1.2 9.561a0.491 0.491 0 0 0 0.491 0.489h0.814v1.697c0 1.323 1.072 2.395 2.394 2.396h0.951V16h6.478V10.847c1.413-1.111 2.32-2.838 2.32-4.775C14.648 2.718 11.93 0 8.579 0z m-4.583 7.387c-0.372 0-0.675-0.304-0.675-0.679a0.677 0.677 0 0 1 0.675-0.677c0.375 0 0.68 0.303 0.68 0.677a0.68 0.68 0 0 1-0.68 0.679z"></path>
        </g>
        <g id="SvgjsG1089">
            <path d="M10.596 3.917a0.64 0.64 0 0 0-0.639 0.641c0 0.354 0.287 0.64 0.639 0.64a0.639 0.639 0 0 0 0.639-0.64 0.639 0.639 0 0 0-0.639-0.641z m-0.151 5.25a0.642 0.642 0 0 0 0.643 0.641c0.352 0 0.638-0.286 0.637-0.64a0.639 0.639 0 0 0-0.637-0.641 0.641 0.641 0 0 0-0.642 0.641z m-4.678-5.945a0.641 0.641 0 0 0 0 1.282 0.64 0.64 0 0 0 0.642-0.64 0.641 0.641 0 0 0-0.642-0.642z"></path>
            <path d="M8.659 0C5.904 0 3.363 2.068 2.835 4.347c-0.119 0.507-0.25 1.83-0.25 1.829L1.316 9.37A0.488 0.488 0 0 0 1.28 9.561a0.491 0.491 0 0 0 0.491 0.489h0.814v1.697c0 1.323 1.072 2.395 2.394 2.395h0.951V16H12.408V10.847c1.413-1.111 2.32-2.838 2.32-4.775C14.728 2.718 12.01 0 8.659 0z m-4.583 7.387c-0.372 0-0.675-0.304-0.675-0.679a0.677 0.677 0 0 1 0.675-0.677c0.375 0 0.68 0.303 0.68 0.677a0.68 0.68 0 0 1-0.68 0.679z m8.959-0.918l-0.631 0.632-0.77-0.543c-0.148 0.077-0.304 0.139-0.467 0.18l-0.142 0.838h0.294l0.079 0.448c0.031 0.008 0.062 0.013 0.092 0.024 0.079 0.029 0.152 0.067 0.22 0.11l0.355-0.25 0.292 0.291-0.262 0.371c0.056 0.1 0.101 0.206 0.125 0.318l0.429 0.074v0.412l-0.446 0.076c-0.009 0.032-0.013 0.063-0.024 0.094a1.147 1.147 0 0 1-0.112 0.223l0.251 0.353-0.292 0.291-0.369-0.262a1.149 1.149 0 0 1-0.318 0.126l-0.075 0.429H10.851l-0.074-0.448c-0.032-0.009-0.064-0.013-0.096-0.025a1.174 1.174 0 0 1-0.221-0.11l-0.356 0.252L9.815 10.08l0.262-0.37a1.151 1.151 0 0 1-0.125-0.319l-0.431-0.074v-0.411l0.45-0.077c0.008-0.032 0.013-0.063 0.025-0.094 0.029-0.079 0.066-0.152 0.109-0.22l-0.251-0.356 0.291-0.291 0.371 0.262a1.174 1.174 0 0 1 0.317-0.125l0.064-0.372h-0.776L9.96 6.704c-0.035-0.011-0.07-0.02-0.104-0.034a2.221 2.221 0 0 1-0.352-0.168l-0.744 0.524-0.63-0.632 0.542-0.767a2.184 2.184 0 0 1-0.181-0.469l-0.894-0.154V4.27l-0.449 0.078c-0.007 0.022-0.009 0.044-0.017 0.065a1.402 1.402 0 0 1-0.109 0.223l0.345 0.489-0.416 0.414-0.506-0.357a1.438 1.438 0 0 1-0.294 0.116l-0.102 0.586-0.584 0-0.106-0.611c-0.02-0.007-0.042-0.009-0.062-0.017a1.43 1.43 0 0 1-0.226-0.11l-0.49 0.345-0.414-0.415 0.359-0.508a1.485 1.485 0 0 1-0.112-0.291L3.824 4.176V3.589l0.608-0.105c0.007-0.022 0.012-0.043 0.02-0.063 0.029-0.08 0.068-0.154 0.109-0.225l-0.345-0.488 0.413-0.415 0.508 0.358a1.439 1.439 0 0 1 0.295-0.117l0.102-0.586h0.584L6.224 2.56c0.021 0.007 0.043 0.008 0.063 0.016 0.08 0.03 0.154 0.069 0.225 0.11l0.489-0.344 0.415 0.414-0.359 0.507a1.397 1.397 0 0 1 0.115 0.293l0.586 0.101v0.427l0.768-0.132c0.011-0.035 0.02-0.07 0.033-0.105 0.046-0.126 0.104-0.243 0.17-0.355l-0.528-0.74 0.634-0.633 0.77 0.544a2.192 2.192 0 0 1 0.468-0.181l0.151-0.894h0.894l0.162 0.928c0.035 0.01 0.069 0.02 0.104 0.033 0.124 0.046 0.241 0.104 0.352 0.168l0.743-0.523 0.629 0.631-0.542 0.77c0.077 0.148 0.138 0.304 0.18 0.466l0.895 0.154v0.894l-0.929 0.16c-0.011 0.035-0.02 0.07-0.032 0.104-0.046 0.125-0.104 0.242-0.17 0.353l0.525 0.743z"></path>
        </g>
        <g id="SvgjsG1119">
            <path d="M11.063 3.332A1.177 1.177 0 1 0 11.058 0.978a1.177 1.177 0 0 0 0.005 2.354z"></path>
            <path d="M5.182 6.316a0.59 0.59 0 1 1-0.85-0.817l1.974-2.272a0.592 0.592 0 0 1 0.455-0.214H9.618a0.764 0.764 0 0 1 0.538 0.217L11.977 5.049l1.511-1.506a0.61 0.61 0 0 1 0.866 0.853L12.533 6.235c-0.551 0.551-0.996 0.082-0.995 0.081l-1.12-1.12-1.742 2.016 1.6 1.6s0.334 0.313 0.142 0.936L9.522 13.742a0.764 0.764 0 1 1-1.481-0.345l0.736-3.276-1.813-1.767-1.565 1.742s-0.254 0.309-0.924 0.284l-3.168 0.009A0.764 0.764 0 0 1 0.551 9.796a0.747 0.747 0 0 1 0.761-0.925l2.725 0.013 4.036-4.676-1.053-0.004-1.834 2.112z"></path>
        </g>
        <g id="SvgjsG1117">
            <path d="M14.159 8.927V5.732c0-0.453 0.371-0.822 0.828-0.822a0.822 0.822 0 0 1 0.821 0.822V10.107c0 0.605-0.218 1.189-0.608 1.646L12.472 14.65c-0.271 0.255-0.337 0.481-0.337 0.823V16h-2.97l-0.003-1.255c0-0.478-0.039-1.117 0.559-1.743l3.462-3.476a0.654 0.654 0 0 1 0.456-0.184 0.657 0.657 0 0 1 0.657 0.655c0 0.156-0.055 0.308-0.156 0.427l-1.67 1.789c-0.108 0.127-0.291 0.366-0.382 0.659-0.049 0.152-0.063 0.301-0.066 0.47h0.537c0.002-0.121 0.011-0.218 0.04-0.308 0.053-0.169 0.157-0.321 0.237-0.419l1.694-1.86c0.213-0.215 0.33-0.493 0.33-0.786 0-0.439-0.264-0.843-0.7-1.042z m-12.51 0V5.732c0-0.453-0.371-0.822-0.827-0.822A0.822 0.822 0 0 0 0 5.732V10.107c0 0.605 0.218 1.189 0.608 1.646l2.729 2.897c0.27 0.255 0.337 0.481 0.337 0.822V16h2.969l0.003-1.255c0-0.478 0.039-1.117-0.559-1.743L2.626 9.526a0.654 0.654 0 0 0-0.457-0.184 0.657 0.657 0 0 0-0.5 1.083l1.669 1.788c0.108 0.127 0.291 0.366 0.382 0.659 0.049 0.152 0.063 0.301 0.066 0.471h-0.537c-0.002-0.121-0.011-0.219-0.04-0.309-0.053-0.169-0.157-0.321-0.236-0.418L1.278 10.755c-0.213-0.215-0.33-0.493-0.33-0.786 0-0.439 0.264-0.843 0.701-1.042z m6.568-7.512a0.705 0.705 0 0 0 0-1.41 0.705 0.705 0 0 0 0 1.41z m-3.825 0.004c-0.395 0-0.715-0.317-0.715-0.71 0-0.392 0.32-0.709 0.715-0.709s0.716 0.317 0.716 0.709c0 0.393-0.321 0.71-0.716 0.71z"></path>
            <path d="M11.225 3.646a0.494 0.494 0 1 0 0.988 0 0.494 0.494 0 1 0-0.988 0"></path>
            <path d="M12.435 4.384h-1.334c-0.006 0-0.446-0.04-0.446-0.04l-0.559-1.947c-0.225-0.784-0.883-0.76-0.882-0.76h-1.808s-0.657-0.024-0.882 0.76l-0.276 0.959-0.275-0.959c-0.226-0.784-0.882-0.76-0.881-0.76H3.693s-0.658-0.024-0.883 0.76l-0.563 1.962c-0.053 0.184 0.047 0.323 0.208 0.369 0.16 0.046 0.324-0.035 0.365-0.181l0.549-1.913 0.267 0L2.835 5.946h0.708v2.352c0 0.194 0.156 0.352 0.35 0.351 0.194 0 0.352-0.158 0.352-0.351v-2.352h0.297v2.352c0 0.194 0.156 0.352 0.35 0.351a0.352 0.352 0 0 0 0.352-0.351v-2.352h0.696l-0.793-3.312 0.266 0.001 0.543 1.892c0.009 0.032 0.023 0.062 0.042 0.087 0.053 0.08 0.146 0.125 0.249 0.122 0.103 0.003 0.195-0.041 0.249-0.12 0.022-0.028 0.037-0.061 0.046-0.098l0.54-1.884 0.246 0v5.595a0.415 0.415 0 0 0 0.415 0.414 0.413 0.413 0 0 0 0.413-0.414V5.046h0.306v3.183a0.413 0.413 0 0 0 0.413 0.414 0.415 0.415 0 0 0 0.417-0.414v-5.595l0.267 0 0.525 1.913c0.028 0.094 0.107 0.156 0.202 0.18 0.004 0.001 0.006 0.003 0.009 0.004 0.083 0.019 0.469 0.128 0.753 0.209v3.47a0.291 0.291 0 0 0 0.581 0V6.676h0.228v1.734c0 0.16 0.13 0.29 0.29 0.29s0.292-0.13 0.292-0.29v-3.242h0.223v1.098c0 0.12 0.098 0.218 0.217 0.218 0.119 0 0.214-0.097 0.214-0.218v-1.249c0-0.35-0.308-0.634-0.658-0.634z"></path>
        </g>
        <g id="SvgjsG1093">
            <path d="M15.485 16c-0.323 0-0.64-0.076-0.918-0.203a2.213 2.213 0 0 0-0.948-0.215c-0.334 0-0.658 0.078-0.944 0.215-0.282 0.127-0.595 0.203-0.922 0.203s-0.639-0.076-0.917-0.203a2.208 2.208 0 0 0-0.948-0.215c-0.334 0-0.658 0.078-0.947 0.215-0.279 0.127-0.591 0.203-0.917 0.203-0.327 0-0.64-0.076-0.92-0.203-0.288-0.136-0.61-0.214-0.948-0.215-0.336 0-0.658 0.078-0.945 0.215-0.281 0.127-0.593 0.203-0.92 0.203s-0.638-0.076-0.92-0.203a2.21 2.21 0 0 0-0.945-0.215c-0.339 0-0.66 0.078-0.947 0.215C1.199 15.924 0.887 16 0.56 16v-1.395c0.327 0 0.639-0.074 0.919-0.201a2.256 2.256 0 0 1 0.947-0.211c0.335 0 0.659 0.078 0.945 0.211a2.221 2.221 0 0 0 0.92 0.201 2.226 2.226 0 0 0 0.92-0.201 2.264 2.264 0 0 1 0.945-0.211c0.338 0 0.66 0.078 0.948 0.21a2.216 2.216 0 0 0 0.919 0.202c0.327 0 0.638-0.074 0.918-0.202 0.289-0.132 0.612-0.21 0.947-0.21 0.339 0 0.662 0.078 0.948 0.21 0.279 0.128 0.591 0.202 0.917 0.202s0.639-0.074 0.922-0.202a2.259 2.259 0 0 1 0.944-0.21c0.337 0 0.661 0.078 0.947 0.21a2.219 2.219 0 0 0 0.919 0.202V16zM2.162 7.939c0.499 0 0.905-0.41 0.905-0.913 0-0.504-0.406-0.913-0.905-0.914-0.498 0-0.904 0.409-0.904 0.913 0 0.503 0.405 0.914 0.904 0.914zM6.136 12.081H3.55c-0.381 0-0.712-0.229-0.861-0.559L1.733 9.316a0.915 0.915 0 0 1-0.029-0.228c0-0.53 0.425-0.958 0.947-0.958l2.101-0.003 1.441-0.662c0.022-0.016 0.082-0.03 0.145-0.029 0.247 0 0.45 0.207 0.45 0.454 0 0.154-0.077 0.293-0.193 0.375l-1.568 0.714c-0.104 0.083-0.301 0.094-0.301 0.094h-0.944l0.791 1.776h1.748c0.173 0 0.294 0.06 0.4 0.156l1.714 1.644a0.608 0.608 0 0 1 0.03 0.849c-0.227 0.24-0.603 0.256-0.84 0.031L6.136 12.082z m8.059-2.986c0.033 0.057 0.115 0.08 0.19 0.08 0.145 0 0.264-0.12 0.264-0.271 0-0.072-0.035-0.136-0.068-0.196-1.616-3.118-5.979-2.19-6.514-1.987-0.089 0.034-0.142 0.136-0.142 0.237 0 0.147 0.119 0.267 0.264 0.267 0.045 0 0.067-0.004 0.105-0.016 4.281-0.972 5.675 1.492 5.901 1.886zM14.938 9.376L9.464 12.867 4.482 0c4.459 0.597 10.129 4.099 10.456 9.376z"></path>
        </g>
        <g id="SvgjsG1113">
            <path d="M3.898 0s0.232 4.58 4.246 4.192S8.597 0.364 3.898 0m4.203 14.894a2.324 2.324 0 0 1-1.902 0.977c-0.64 0-1.267-0.3-1.689-0.721-0.864-0.943-1.985-3.051-1.986-3.052C1.897 10.822 1.56 9.837 1.56 8.839c0-2.126 1.72-3.968 3.848-3.968 1.05 0 1.996 0.42 2.692 1.099a3.835 3.835 0 0 1 2.69-1.099c2.129 0 3.848 1.842 3.849 3.967 0 0.997-0.334 1.983-0.964 3.259 0 0-1.12 2.108-1.984 3.051-0.423 0.422-1.049 0.722-1.689 0.722a2.321 2.321 0 0 1-1.899-0.977" fill-rule="evenodd"></path>
        </g>
        <g id="SvgjsG1090">
            <path d="M10.788 4.888L8.28 2.578 9.852 0.88 15.2 5.814c-1.139 1.268-2.214 2.115-3.924 2.284l-0.488-3.21z m0.67 8.043c0.017 0.268 0.083 0.538 0.202 0.798 0.524 1.143 1.871 1.648 3.012 1.123 1.141-0.524 1.643-1.871 1.123-3.012a2.272 2.272 0 0 0-1.698-1.298l-0.37 2.24-2.269 0.147z"></path>
            <path d="M13.218 12.419l-1.479-2.017a2.5 2.5 0 0 0-1.005 1.728l2.483 0.289z m-6.446-6.176l0.371-1.46 1.113-1.214 1.694 1.565-7.218 7.797c-0.579 0.616-1.016 1.364-1.256 2.201L0 14.666c0.299-1.02 0.827-1.941 1.528-2.714l5.244-5.709z m2.557 6.73a2.5 2.5 0 0 1 0.963 1.974h-2.499l1.536-1.974z"></path>
        </g>
        <g id="SvgjsG1101">
            <path d="M1.12 8.836c1.001-1.179 2.827-2.005 4.388-1.743 0.174-2.151-0.071-4.156 1-6.133C3.189 1.173 1.648 6.247 1.12 8.836M12.892 5.07c0.697-0.83 2.347-1.253 3.213-0.476C13.849 1.44 11.058-0.583 7.086 0.764c3.102 0.942 5.276 3.84 5.805 4.306"></path>
            <path d="M12.267 5.198C11.182 3.684 7.769 1.266 7.019 1.417c-0.8 0.16-1.022 4.702-0.95 5.676 0.475-0.892 1.202-1.564 2.045-1.984l3.461 9.423 0.475-0.12-3.494-9.493c1.156-0.427 2.484-0.391 3.712 0.279"></path>
        </g>
        <g id="SvgjsG1094">
            <path d="M8.688 6.116c0.878 0.204 1.538 0.96 1.538 1.857v6.893c0 0.213-0.183 0.384-0.402 0.384H5.872a0.395 0.395 0 0 1-0.4-0.384V7.973c0-0.9 0.654-1.657 1.54-1.857V3.031h1.676V6.116zM7.01 1.671h1.676v0.665h-1.676V1.671z"></path>
        </g>
        <g id="SvgjsG1092">
            <path d="M9.46 6.313c-1.577 0-2.86 1.283-2.86 2.86s1.283 2.86 2.86 2.86 2.86-1.283 2.86-2.86-1.283-2.86-2.86-2.86z"></path>
            <path d="M13.26 3.839l-0.624-1.912h-6.352L5.661 3.839H0v10.668h16v-10.668H13.26zM3.744 6.743H1.543v-1.176H3.744v1.176z m5.716 6.624c-2.312 0-4.193-1.881-4.193-4.194s1.881-4.194 4.193-4.193 4.193 1.881 4.194 4.193-1.88 4.194-4.193 4.194z"></path>
        </g>
        <g id="SvgjsG1107">
            <path d="M16 14.068H0V2h16v12.068z m-14.107-1.117h12.214L10.088 8.837l-0.761 0.766c-0.33 0.329-0.801 0.518-1.297 0.517l-0.008 0c-0.498-0.002-0.971-0.195-1.299-0.529l-0.773-0.783-4.057 4.144zM1.116 3.916v8.233L5.165 8.014 1.116 3.916zM10.874 8.045l4.01 4.104V4.008l-4.01 4.037zM1.896 3.117l5.622 5.691c0.122 0.124 0.307 0.195 0.508 0.195h0.003c0.198 0 0.388-0.07 0.506-0.189L14.196 3.116H1.896z"></path>
        </g>
        <g id="SvgjsG1111">
            <path d="M13.851 6.028c0-3.226-2.624-5.85-5.85-5.85-3.226 0-5.85 2.624-5.85 5.85H0.667v9.3h14.666v-9.3h-1.482z m-9.301 0c0-1.902 1.548-3.45 3.45-3.45S11.451 4.125 11.451 6.028H4.551z m4.233 4.389v2.674h-1.585V10.416c-0.331-0.244-0.547-0.635-0.547-1.079 0-0.74 0.6-1.34 1.341-1.34s1.34 0.6 1.34 1.34c0 0.443-0.216 0.835-0.547 1.08z"></path>
        </g>
        <g id="SvgjsG1099">
            <path d="M7.101 11.212v3.79s0.126 0.998-1.109 0.998h-4.88c-1.238 0-1.108-0.998-1.108-0.998v-3.79h7.097zM4.85 0.46A0.962 0.962 0 0 0 4.026 0L2.454 0.003c-0.553 0-1.001 0.453-1.001 1.012 0 0.197 0.059 0.379 0.154 0.532l0.009 0.015a4.101 4.101 0 0 1 0.736 2.352c0 1.483-0.785 2.786-1.954 3.498l-0.014 0.004a0.814 0.814 0 0 0-0.376 0.69v1.202h7.098V4.887s0.01-0.409-0.263-0.914L4.85 0.461z m5.652 0A0.968 0.968 0 0 1 11.326 0l1.576 0.003c0.551 0 0.999 0.453 0.999 1.012 0 0.197-0.053 0.379-0.148 0.532l-0.015 0.014c-0.46 0.67-0.736 1.478-0.736 2.352 0 1.483 0.785 2.786 1.959 3.498l0.01 0.005c0.229 0.146 0.38 0.394 0.38 0.69v1.202H8.246v-4.421s-0.005-0.41 0.268-0.914L10.502 0.46z m4.846 10.752v3.79s0.126 0.998-1.111 0.998H9.357c-1.238 0-1.111-0.998-1.111-0.998v-3.79h7.102zM8.275 10.616a0.341 0.341 0 0 0 0.339-0.342c0-0.182-0.154-0.335-0.339-0.335h-1.132c-0.186 0-0.332 0.152-0.332 0.335 0 0.19 0.146 0.342 0.332 0.342h1.133z"></path>
        </g>
        <g id="SvgjsG1122">
            <path d="M8.312 8.242l0 0.521c0.492-0.069 0.443-0.509 0-0.52v-0.001z m-0.51-0.627V7.155c-0.365 0.064-0.358 0.454 0 0.46z"></path>
            <path d="M8.055 5.946c-1.128 0-2.044 0.915-2.044 2.043 0 1.129 0.915 2.044 2.045 2.044 1.129 0 2.043-0.915 2.043-2.044 0-1.128-0.915-2.043-2.043-2.043l-0.001 0z m0.251 3.336v0.364h-0.507v-0.37c-0.29-0.043-0.822-0.323-0.855-0.924h0.534c0.034 0.154 0.078 0.34 0.321 0.409l-0.001-0.605c-0.334-0.048-0.814-0.194-0.814-0.73 0-0.602 0.666-0.789 0.813-0.789v-0.364h0.502v0.364c0.338 0.02 0.83 0.302 0.829 0.84h-0.528c-0.014-0.16-0.137-0.317-0.296-0.327v0.554c0.403 0.041 0.877 0.195 0.877 0.738 0 0.473-0.475 0.818-0.877 0.84h0.002z"></path>
            <path d="M0 11.93h16V4H0v7.93z m1.508-1.508V5.508h12.984V10.422H1.508z"></path>
        </g>
        <g id="SvgjsG1088">
            <path d="M14.88 3.372H1.12l0.267-2.071h13.226z"></path>
            <path d="M10.246 1.397H5.754l0.4-0.997h3.692z m1.134 2.712V13.96h-0.964V4.109h-1.934V13.96h-0.964V4.109H5.452V13.96h-0.965V4.109H2.002l0.667 11.434h10.662l0.8-11.434z"></path>
        </g>
        <g id="SvgjsG1110">
            <path d="M7.648 0h0.716v2.72H7.648V0z m-0.042 13.226h0.715v2.72h-0.715v-2.72z m5.674-5.779H16v0.714H13.28v-0.714zM0 7.403h2.72v0.716H0V7.403zM1.036 4.064l0.347-0.625 2.376 1.318-0.347 0.626L1.036 4.064z m2.852-2.908l0.606-0.381 1.443 2.308-0.606 0.377-1.443-2.304zM10.357 12.627l0.617-0.356 1.36 2.356-0.618 0.357-1.359-2.357z m2.079-1.903l0.347-0.624 2.38 1.317-0.349 0.627-2.378-1.32zM4.336 15.016l-0.625-0.347 1.318-2.38 0.627 0.346L4.336 15.016zM1.175 11.994L0.798 11.388l2.306-1.443 0.378 0.606-2.307 1.443zM12.692 5.611l-0.359-0.621 2.355-1.36 0.359 0.621-2.355 1.36zM10.873 3.572l-0.627-0.348 1.319-2.377 0.626 0.347-1.318 2.378z m-7.283 4.392c0-2.44 1.979-4.419 4.419-4.419 2.438 0 4.415 1.979 4.415 4.419S10.447 12.381 8.009 12.381c-2.44 0-4.419-1.977-4.419-4.417"></path>
        </g>
        <g id="SvgjsG1116">
            <path d="M15.979 14.91H0L7.99 1.068l7.989 13.842zM3.175 13.076h9.629L7.99 4.735 3.175 13.076h0z" fill-rule="evenodd"></path>
            <path d="M7.348 7.475h1.267v3.431h-1.267V7.475z m0 4.008h1.267v1.01h-1.267v-1.01z" fill-rule="evenodd"></path>
        </g>
        <g id="SvgjsG1097">
            <path d="M0 5.2h3.15v5.6H0z"></path>
            <path d="M6.257 14.325L2.407 10.8v-5.511l3.85-3.614L7.141 8z"></path>
            <path d="M6.257 1.675S7.14 4.852 7.14 8s-0.883 6.325-0.883 6.325m7.927 0.947l-1.304-0.671c0.015-0.03 1.562-3.093 1.562-6.825 0-3.707-1.789-6.755-1.807-6.785l1.258-0.754c0.082 0.137 2.015 3.412 2.015 7.538 0 4.101-1.653 7.361-1.724 7.497z"></path>
            <path d="M11.799 13.516l-1.304-0.671c0.011-0.021 1.138-2.258 1.137-4.979 0-2.712-1.301-4.915-1.313-4.937l1.257-0.753c0.063 0.104 1.523 2.579 1.523 5.691 0 3.088-1.248 5.545-1.302 5.649z"></path>
            <path d="M9.543 11.59l-1.304-0.671c0.006-0.012 0.696-1.387 0.696-3.053 0-1.64-0.793-3-0.801-3.013l1.259-0.752c0.041 0.069 1.009 1.708 1.01 3.765 0 2.033-0.823 3.656-0.859 3.724z"></path>
        </g>
        <g id="SvgjsG1098">
            <path d="M5.98 0h4.04v10.94H5.98z m0 12.78h4.04V16H5.98z"></path>
        </g>
        <g id="SvgjsG1091">
            <path d="M14.232 5.485L6.361 15.96l1.815-7.368-4.222 0.071L5.679 0h5.121L8.744 5.489z"></path>
        </g>
        <g id="SvgjsG1087">
            <path d="M8 1.076C3.594 1.076 0.023 3.767 0.023 7.088c0 1.625 0.857 3.099 2.248 4.181l0.003 3.607 4.168-1.892c0.504 0.075 1.025 0.115 1.558 0.116 4.406 0 7.976-2.692 7.976-6.012C15.976 3.767 12.406 1.076 8 1.076z" fill-rule="evenodd"></path>
        </g>
        <g id="SvgjsG1105">
            <path d="M8 2.022C3.815 2.022 0.422 4.579 0.422 7.733c0 1.544 0.814 2.944 2.135 3.972l0.003 3.427 3.961-1.798c0.479 0.071 0.973 0.11 1.48 0.11 4.185 0 7.578-2.557 7.578-5.711 0-3.154-3.392-5.711-7.577-5.711zM4.81 8.933a1.067 1.067 0 1 1 0-2.133 1.067 1.067 0 0 1 0 2.133z m3.186 0a1.067 1.067 0 1 1 0-2.133 1.067 1.067 0 0 1 0 2.133z m3.143 0c-0.589 0-1.067-0.478-1.067-1.066s0.477-1.067 1.067-1.067 1.067 0.478 1.067 1.067a1.067 1.067 0 0 1-1.067 1.066z"></path>
        </g>
        <g id="SvgjsG1103">
            <path d="M1.135 8.57h1.423c0.108 0 0.208 0.054 0.268 0.142 0 0 0.271 0.41 0.542 0.816 0.15-1.331 0.673-5.983 0.673-5.983a0.322 0.322 0 0 1 0.3-0.284c0.155-0.01 0.294 0.094 0.331 0.246 0 0 0.682 2.858 1.004 4.208l0.427-1.21a0.322 0.322 0 0 1 0.301-0.214c0.134-0.001 0.256 0.083 0.302 0.21 0 0 0.633 1.72 0.76 2.067h1.236c0.108 0 0.208 0.054 0.267 0.142 0 0 0.271 0.41 0.542 0.816 0.15-1.331 0.673-5.983 0.673-5.983a0.321 0.321 0 0 1 0.631-0.039s0.681 2.857 1.004 4.209c0.212-0.6 0.428-1.208 0.427-1.208a0.32 0.32 0 0 1 0.602-0.004s0.634 1.72 0.76 2.067h1.262l0.067-0.128c0.613-1.055 1.061-3.009 1.061-4.432C16 2.193 14.678 0 12.102 0c-3.679 0-4.152 3.447-4.152 3.447S7.494 0.017 3.818 0.017C1.333 0.017 0 2.13 0 4.009c0 1.622 0.71 3.625 1.074 4.448l0.061 0.113z"></path>
            <path d="M13.385 9.211a0.321 0.321 0 0 1-0.301-0.21S12.8 8.229 12.554 7.56c-0.23 0.654-0.491 1.394-0.492 1.394a0.318 0.318 0 0 1-0.319 0.213 0.318 0.318 0 0 1-0.295-0.245L10.618 5.44l-0.567 5.036a0.321 0.321 0 0 1-0.243 0.275 0.32 0.32 0 0 1-0.342-0.133s-0.778-1.17-0.935-1.406H7.243c-0.134 0-0.254-0.085-0.3-0.21l-0.531-1.442-0.492 1.395A0.318 0.318 0 0 1 5.6 9.166a0.32 0.32 0 0 1-0.296-0.245s-0.458-1.921-0.83-3.48c-0.221 1.964-0.566 5.034-0.566 5.034a0.321 0.321 0 0 1-0.586 0.141s-0.778-1.17-0.935-1.405H1.483c2.301 4.086 6.468 6.779 6.468 6.779S12.194 13.298 14.531 9.211h-1.146z"></path>
        </g>
        <g id="SvgjsG1100">
            <path d="M7.996 16h-0.001c-2.137-0.001-4.145-0.834-5.655-2.345C0.829 12.142-0.002 10.132 0 7.995-0.002 5.861 0.828 3.853 2.338 2.342 3.848 0.832 5.855 0 7.99 0h0.01C10.136 0 12.146 0.832 13.656 2.342c1.51 1.51 2.342 3.518 2.344 5.653-0.002 2.139-0.835 4.148-2.346 5.66-1.512 1.511-3.521 2.344-5.658 2.345z m-0.006-14.161c-1.644 0-3.189 0.64-4.351 1.804-1.162 1.163-1.801 2.708-1.8 4.352-0.001 1.648 0.639 3.196 1.802 4.359 1.163 1.164 2.709 1.805 4.354 1.807 3.398-0.002 6.163-2.768 6.167-6.166-0.002-3.394-2.765-6.155-6.16-6.155h-0.01z"></path>
            <path d="M8.692 7.143V5.35c0.511 0.037 0.91 0.544 0.957 1.062h1.697c0.002-1.741-1.581-2.657-2.672-2.724v-1.175H7.056v1.175c-0.476 0.004-2.622 0.611-2.62 2.558-0.003 1.733 1.545 2.206 2.62 2.358v1.959c-0.783-0.222-0.926-0.824-1.036-1.323h-1.723c0.11 1.949 1.823 2.856 2.759 2.995v1.202h1.636v-1.184c1.294-0.07 2.827-1.187 2.829-2.716-0.002-1.758-1.529-2.256-2.829-2.393zM7.064 6.855c-1.152-0.018-1.175-1.281 0-1.488v1.488z m1.645 3.717V8.883c1.427 0.039 1.586 1.462 0 1.689z"></path>
        </g>
        <g id="SvgjsG1114">
            <path d="M6.22 14.34L0.096 8.212l2.288-2.288 6.124 6.124z"></path>
            <path d="M16.126 4.416L7.47 13.072l-2.44-2.44L13.686 1.976z"></path>
        </g>
        <g id="SvgjsG1123">
            <path d="M0.778 8.111a7.222 7.222 0 1 0 14.444 0 7.222 7.222 0 1 0-14.444 0"></path>
        </g>
        <g id="SvgjsG1118">
            <path d="M14.117 11.993V2.622l1.758-1.76L15.12 0.108l-1.763 1.766h-9.341V0h-2.134v1.874H-0.001v2.133h1.883v10.119H11.983v1.875h2.133v-1.874h1.883v-2.133h-1.883z m-2.891-7.986l-7.21 7.22v-7.22h7.21zM4.76 11.993l7.224-7.235v7.235h-7.224z"></path>
        </g>
        <g id="SvgjsG1085">
            <path d="M3.234 0.019l9.577 8.939-4.629 0.399 2.634 5.826-1.756 0.798-2.555-5.904-3.272 3.113V0.021"></path>
        </g>
        <g id="SvgjsG1125">
            <path d="M0 13.147h2.912V10.183H5.806V7.199h2.94V4.27h2.919V1.36H16v1.485H13.118v2.92H10.195v2.962H7.278V11.674H4.35v2.971H0V13.147z m9.706 1.441h2.576c0.709 0 0.737-1.092 0-1.092h-1.321L13.472 10.986c0.557-0.557-0.23-1.362-0.822-0.772L10.177 12.695v-1.307c0.004-0.709-1.097-0.737-1.099 0v2.56c0 0.382 0.256 0.64 0.628 0.64z"></path>
        </g>
        <g id="SvgjsG1104">
            <path d="M16.012 2.226H8.034V0.013L16.012 0.012z"></path>
            <path d="M7.732 6.485l5.676-5.676 1.797 1.796-5.676 5.678z"></path>
            <path d="M15.997 0.014l0.003 7.978-2.212 0.001-0.003-7.979zM0.4 3.133h2.267v11.6H0.4z m11.132 7.008h2.267V15.067h-2.267z"></path>
            <path d="M0.4 2.226h5.421v2.266H0.4zM0.4 12.8h13.399v2.267H0.4z"></path>
        </g>
        <g id="SvgjsG1106">
            <path d="M8 2.545C2.984 2.545 0.007 8 0.007 8S2.984 13.455 8 13.455 15.993 8 15.993 8 13.016 2.545 8 2.545z m0 8.71c-1.795 0-3.255-1.46-3.255-3.255S6.205 4.745 8 4.745 11.254 6.205 11.254 8s-1.46 3.255-3.254 3.255z"></path>
            <path d="M6.079 8.078a1.921 1.921 0 1 0 3.842 0 1.921 1.921 0 1 0-3.842 0"></path>
        </g>
        <g id="SvgjsG1126">
            <use xlink:href="#SvgjsG1084" transform="translate(0, 0) scale(0.9)" fill="rgba(123, 15, 15, 0.23)"></use>
            <use xlink:href="#SvgjsG1085" transform="translate(0, 27.900000000000002) scale(0.9)" fill="rgba(123, 15, 15, 0.23)"></use>
            <use xlink:href="#SvgjsG1086" transform="translate(0, 55.800000000000004) scale(0.9)" fill="rgba(123, 15, 15, 0.23)"></use>
            <use xlink:href="#SvgjsG1087" transform="translate(0, 83.7) scale(0.9)" fill="rgba(123, 15, 15, 0.23)"></use>
            <use xlink:href="#SvgjsG1088" transform="translate(0, 111.60000000000001) scale(0.9)" fill="rgba(123, 15, 15, 0.23)"></use>
            <use xlink:href="#SvgjsG1089" transform="translate(0, 139.5) scale(0.9)" fill="rgba(123, 15, 15, 0.23)"></use>
            <use xlink:href="#SvgjsG1090" transform="translate(0, 167.4) scale(0.9)" fill="rgba(123, 15, 15, 0.23)"></use>
            <use xlink:href="#SvgjsG1091" transform="translate(0, 195.3) scale(0.9)" fill="rgba(123, 15, 15, 0.23)"></use>
            <use xlink:href="#SvgjsG1092" transform="translate(0, 223.20000000000002) scale(0.9)" fill="rgba(123, 15, 15, 0.23)"></use>
            <use xlink:href="#SvgjsG1093" transform="translate(0, 251.10000000000002) scale(0.9)" fill="rgba(123, 15, 15, 0.23)"></use>
            <use xlink:href="#SvgjsG1094" transform="translate(27.900000000000002, 0) scale(0.9)" fill="rgba(123, 15, 15, 0.23)"></use>
            <use xlink:href="#SvgjsG1095" transform="translate(27.900000000000002, 27.900000000000002) scale(0.9)" fill="rgba(123, 15, 15, 0.23)"></use>
            <use xlink:href="#SvgjsG1096" transform="translate(27.900000000000002, 55.800000000000004) scale(0.9)" fill="rgba(123, 15, 15, 0.23)"></use>
            <use xlink:href="#SvgjsG1097" transform="translate(27.900000000000002, 83.7) scale(0.9)" fill="rgba(123, 15, 15, 0.23)"></use>
            <use xlink:href="#SvgjsG1098" transform="translate(27.900000000000002, 111.60000000000001) scale(0.9)" fill="rgba(123, 15, 15, 0.23)"></use>
            <use xlink:href="#SvgjsG1099" transform="translate(27.900000000000002, 139.5) scale(0.9)" fill="rgba(123, 15, 15, 0.23)"></use>
            <use xlink:href="#SvgjsG1100" transform="translate(27.900000000000002, 167.4) scale(0.9)" fill="rgba(123, 15, 15, 0.23)"></use>
            <use xlink:href="#SvgjsG1101" transform="translate(27.900000000000002, 195.3) scale(0.9)" fill="rgba(123, 15, 15, 0.23)"></use>
            <use xlink:href="#SvgjsG1098" transform="translate(27.900000000000002, 223.20000000000002) scale(0.9)" fill="rgba(123, 15, 15, 0.23)"></use>
            <use xlink:href="#SvgjsG1102" transform="translate(27.900000000000002, 251.10000000000002) scale(0.9)" fill="rgba(123, 15, 15, 0.23)"></use>
            <use xlink:href="#SvgjsG1102" transform="translate(55.800000000000004, 0) scale(0.9)" fill="rgba(123, 15, 15, 0.23)"></use>
            <use xlink:href="#SvgjsG1103" transform="translate(55.800000000000004, 27.900000000000002) scale(0.9)" fill="rgba(123, 15, 15, 0.23)"></use>
            <use xlink:href="#SvgjsG1104" transform="translate(55.800000000000004, 55.800000000000004) scale(0.9)" fill="rgba(123, 15, 15, 0.23)"></use>
            <use xlink:href="#SvgjsG1105" transform="translate(55.800000000000004, 83.7) scale(0.9)" fill="rgba(123, 15, 15, 0.23)"></use>
            <use xlink:href="#SvgjsG1101" transform="translate(55.800000000000004, 111.60000000000001) scale(0.9)" fill="rgba(123, 15, 15, 0.23)"></use>
            <use xlink:href="#SvgjsG1103" transform="translate(55.800000000000004, 139.5) scale(0.9)" fill="rgba(123, 15, 15, 0.23)"></use>
            <use xlink:href="#SvgjsG1093" transform="translate(55.800000000000004, 167.4) scale(0.9)" fill="rgba(123, 15, 15, 0.23)"></use>
            <use xlink:href="#SvgjsG1106" transform="translate(55.800000000000004, 195.3) scale(0.9)" fill="rgba(123, 15, 15, 0.23)"></use>
            <use xlink:href="#SvgjsG1107" transform="translate(55.800000000000004, 223.20000000000002) scale(0.9)" fill="rgba(123, 15, 15, 0.23)"></use>
            <use xlink:href="#SvgjsG1108" transform="translate(55.800000000000004, 251.10000000000002) scale(0.9)" fill="rgba(123, 15, 15, 0.23)"></use>
            <use xlink:href="#SvgjsG1109" transform="translate(83.7, 0) scale(0.9)" fill="rgba(123, 15, 15, 0.23)"></use>
            <use xlink:href="#SvgjsG1110" transform="translate(83.7, 27.900000000000002) scale(0.9)" fill="rgba(123, 15, 15, 0.23)"></use>
            <use xlink:href="#SvgjsG1099" transform="translate(83.7, 55.800000000000004) scale(0.9)" fill="rgba(123, 15, 15, 0.23)"></use>
            <use xlink:href="#SvgjsG1111" transform="translate(83.7, 83.7) scale(0.9)" fill="rgba(123, 15, 15, 0.23)"></use>
            <use xlink:href="#SvgjsG1112" transform="translate(83.7, 111.60000000000001) scale(0.9)" fill="rgba(123, 15, 15, 0.23)"></use>
            <use xlink:href="#SvgjsG1093" transform="translate(83.7, 139.5) scale(0.9)" fill="rgba(123, 15, 15, 0.23)"></use>
            <use xlink:href="#SvgjsG1086" transform="translate(83.7, 167.4) scale(0.9)" fill="rgba(123, 15, 15, 0.23)"></use>
            <use xlink:href="#SvgjsG1113" transform="translate(83.7, 195.3) scale(0.9)" fill="rgba(123, 15, 15, 0.23)"></use>
            <use xlink:href="#SvgjsG1103" transform="translate(83.7, 223.20000000000002) scale(0.9)" fill="rgba(123, 15, 15, 0.23)"></use>
            <use xlink:href="#SvgjsG1095" transform="translate(83.7, 251.10000000000002) scale(0.9)" fill="rgba(123, 15, 15, 0.23)"></use>
            <use xlink:href="#SvgjsG1114" transform="translate(111.60000000000001, 0) scale(0.9)" fill="rgba(123, 15, 15, 0.23)"></use>
            <use xlink:href="#SvgjsG1114" transform="translate(111.60000000000001, 27.900000000000002) scale(0.9)" fill="rgba(123, 15, 15, 0.23)"></use>
            <use xlink:href="#SvgjsG1108" transform="translate(111.60000000000001, 55.800000000000004) scale(0.9)" fill="rgba(123, 15, 15, 0.23)"></use>
            <use xlink:href="#SvgjsG1086" transform="translate(111.60000000000001, 83.7) scale(0.9)" fill="rgba(123, 15, 15, 0.23)"></use>
            <use xlink:href="#SvgjsG1115" transform="translate(111.60000000000001, 111.60000000000001) scale(0.9)" fill="rgba(123, 15, 15, 0.23)"></use>
            <use xlink:href="#SvgjsG1089" transform="translate(111.60000000000001, 139.5) scale(0.9)" fill="rgba(123, 15, 15, 0.23)"></use>
            <use xlink:href="#SvgjsG1091" transform="translate(111.60000000000001, 167.4) scale(0.9)" fill="rgba(123, 15, 15, 0.23)"></use>
            <use xlink:href="#SvgjsG1112" transform="translate(111.60000000000001, 195.3) scale(0.9)" fill="rgba(123, 15, 15, 0.23)"></use>
            <use xlink:href="#SvgjsG1116" transform="translate(111.60000000000001, 223.20000000000002) scale(0.9)" fill="rgba(123, 15, 15, 0.23)"></use>
            <use xlink:href="#SvgjsG1088" transform="translate(111.60000000000001, 251.10000000000002) scale(0.9)" fill="rgba(123, 15, 15, 0.23)"></use>
            <use xlink:href="#SvgjsG1117" transform="translate(139.5, 0) scale(0.9)" fill="rgba(123, 15, 15, 0.23)"></use>
            <use xlink:href="#SvgjsG1102" transform="translate(139.5, 27.900000000000002) scale(0.9)" fill="rgba(123, 15, 15, 0.23)"></use>
            <use xlink:href="#SvgjsG1112" transform="translate(139.5, 55.800000000000004) scale(0.9)" fill="rgba(123, 15, 15, 0.23)"></use>
            <use xlink:href="#SvgjsG1105" transform="translate(139.5, 83.7) scale(0.9)" fill="rgba(123, 15, 15, 0.23)"></use>
            <use xlink:href="#SvgjsG1084" transform="translate(139.5, 111.60000000000001) scale(0.9)" fill="rgba(123, 15, 15, 0.23)"></use>
            <use xlink:href="#SvgjsG1118" transform="translate(139.5, 139.5) scale(0.9)" fill="rgba(123, 15, 15, 0.23)"></use>
            <use xlink:href="#SvgjsG1119" transform="translate(139.5, 167.4) scale(0.9)" fill="rgba(123, 15, 15, 0.23)"></use>
            <use xlink:href="#SvgjsG1088" transform="translate(139.5, 195.3) scale(0.9)" fill="rgba(123, 15, 15, 0.23)"></use>
            <use xlink:href="#SvgjsG1089" transform="translate(139.5, 223.20000000000002) scale(0.9)" fill="rgba(123, 15, 15, 0.23)"></use>
            <use xlink:href="#SvgjsG1120" transform="translate(139.5, 251.10000000000002) scale(0.9)" fill="rgba(123, 15, 15, 0.23)"></use>
            <use xlink:href="#SvgjsG1121" transform="translate(167.4, 0) scale(0.9)" fill="rgba(123, 15, 15, 0.23)"></use>
            <use xlink:href="#SvgjsG1111" transform="translate(167.4, 27.900000000000002) scale(0.9)" fill="rgba(123, 15, 15, 0.23)"></use>
            <use xlink:href="#SvgjsG1110" transform="translate(167.4, 55.800000000000004) scale(0.9)" fill="rgba(123, 15, 15, 0.23)"></use>
            <use xlink:href="#SvgjsG1122" transform="translate(167.4, 83.7) scale(0.9)" fill="rgba(123, 15, 15, 0.23)"></use>
            <use xlink:href="#SvgjsG1101" transform="translate(167.4, 111.60000000000001) scale(0.9)" fill="rgba(123, 15, 15, 0.23)"></use>
            <use xlink:href="#SvgjsG1107" transform="translate(167.4, 139.5) scale(0.9)" fill="rgba(123, 15, 15, 0.23)"></use>
            <use xlink:href="#SvgjsG1102" transform="translate(167.4, 167.4) scale(0.9)" fill="rgba(123, 15, 15, 0.23)"></use>
            <use xlink:href="#SvgjsG1103" transform="translate(167.4, 195.3) scale(0.9)" fill="rgba(123, 15, 15, 0.23)"></use>
            <use xlink:href="#SvgjsG1112" transform="translate(167.4, 223.20000000000002) scale(0.9)" fill="rgba(123, 15, 15, 0.23)"></use>
            <use xlink:href="#SvgjsG1120" transform="translate(167.4, 251.10000000000002) scale(0.9)" fill="rgba(123, 15, 15, 0.23)"></use>
            <use xlink:href="#SvgjsG1123" transform="translate(195.3, 0) scale(0.9)" fill="rgba(123, 15, 15, 0.23)"></use>
            <use xlink:href="#SvgjsG1085" transform="translate(195.3, 27.900000000000002) scale(0.9)" fill="rgba(123, 15, 15, 0.23)"></use>
            <use xlink:href="#SvgjsG1123" transform="translate(195.3, 55.800000000000004) scale(0.9)" fill="rgba(123, 15, 15, 0.23)"></use>
            <use xlink:href="#SvgjsG1089" transform="translate(195.3, 83.7) scale(0.9)" fill="rgba(123, 15, 15, 0.23)"></use>
            <use xlink:href="#SvgjsG1103" transform="translate(195.3, 111.60000000000001) scale(0.9)" fill="rgba(123, 15, 15, 0.23)"></use>
            <use xlink:href="#SvgjsG1112" transform="translate(195.3, 139.5) scale(0.9)" fill="rgba(123, 15, 15, 0.23)"></use>
            <use xlink:href="#SvgjsG1112" transform="translate(195.3, 167.4) scale(0.9)" fill="rgba(123, 15, 15, 0.23)"></use>
            <use xlink:href="#SvgjsG1111" transform="translate(195.3, 195.3) scale(0.9)" fill="rgba(123, 15, 15, 0.23)"></use>
            <use xlink:href="#SvgjsG1123" transform="translate(195.3, 223.20000000000002) scale(0.9)" fill="rgba(123, 15, 15, 0.23)"></use>
            <use xlink:href="#SvgjsG1113" transform="translate(195.3, 251.10000000000002) scale(0.9)" fill="rgba(123, 15, 15, 0.23)"></use>
            <use xlink:href="#SvgjsG1093" transform="translate(223.20000000000002, 0) scale(0.9)" fill="rgba(123, 15, 15, 0.23)"></use>
            <use xlink:href="#SvgjsG1091" transform="translate(223.20000000000002, 27.900000000000002) scale(0.9)" fill="rgba(123, 15, 15, 0.23)"></use>
            <use xlink:href="#SvgjsG1116" transform="translate(223.20000000000002, 55.800000000000004) scale(0.9)" fill="rgba(123, 15, 15, 0.23)"></use>
            <use xlink:href="#SvgjsG1106" transform="translate(223.20000000000002, 83.7) scale(0.9)" fill="rgba(123, 15, 15, 0.23)"></use>
            <use xlink:href="#SvgjsG1122" transform="translate(223.20000000000002, 111.60000000000001) scale(0.9)" fill="rgba(123, 15, 15, 0.23)"></use>
            <use xlink:href="#SvgjsG1098" transform="translate(223.20000000000002, 139.5) scale(0.9)" fill="rgba(123, 15, 15, 0.23)"></use>
            <use xlink:href="#SvgjsG1090" transform="translate(223.20000000000002, 167.4) scale(0.9)" fill="rgba(123, 15, 15, 0.23)"></use>
            <use xlink:href="#SvgjsG1101" transform="translate(223.20000000000002, 195.3) scale(0.9)" fill="rgba(123, 15, 15, 0.23)"></use>
            <use xlink:href="#SvgjsG1088" transform="translate(223.20000000000002, 223.20000000000002) scale(0.9)" fill="rgba(123, 15, 15, 0.23)"></use>
            <use xlink:href="#SvgjsG1116" transform="translate(223.20000000000002, 251.10000000000002) scale(0.9)" fill="rgba(123, 15, 15, 0.23)"></use>
            <use xlink:href="#SvgjsG1086" transform="translate(251.10000000000002, 0) scale(0.9)" fill="rgba(123, 15, 15, 0.23)"></use>
            <use xlink:href="#SvgjsG1120" transform="translate(251.10000000000002, 27.900000000000002) scale(0.9)" fill="rgba(123, 15, 15, 0.23)"></use>
            <use xlink:href="#SvgjsG1096" transform="translate(251.10000000000002, 55.800000000000004) scale(0.9)" fill="rgba(123, 15, 15, 0.23)"></use>
            <use xlink:href="#SvgjsG1114" transform="translate(251.10000000000002, 83.7) scale(0.9)" fill="rgba(123, 15, 15, 0.23)"></use>
            <use xlink:href="#SvgjsG1124" transform="translate(251.10000000000002, 111.60000000000001) scale(0.9)" fill="rgba(123, 15, 15, 0.23)"></use>
            <use xlink:href="#SvgjsG1125" transform="translate(251.10000000000002, 139.5) scale(0.9)" fill="rgba(123, 15, 15, 0.23)"></use>
            <use xlink:href="#SvgjsG1118" transform="translate(251.10000000000002, 167.4) scale(0.9)" fill="rgba(123, 15, 15, 0.23)"></use>
            <use xlink:href="#SvgjsG1113" transform="translate(251.10000000000002, 195.3) scale(0.9)" fill="rgba(123, 15, 15, 0.23)"></use>
            <use xlink:href="#SvgjsG1093" transform="translate(251.10000000000002, 223.20000000000002) scale(0.9)" fill="rgba(123, 15, 15, 0.23)"></use>
            <use xlink:href="#SvgjsG1085" transform="translate(251.10000000000002, 251.10000000000002) scale(0.9)" fill="rgba(123, 15, 15, 0.23)"></use>
        </g>
    </defs>
</svg>